<svg version="1.2" baseProfile="tiny-ps" xmlns="http://www.w3.org/2000/svg" viewBox="0 0 732 430" width="732" height="430">
	<title>astronautCat-svg</title>
	<defs>
		<linearGradient id="grd1" gradientUnits="userSpaceOnUse"  x1="82.562" y1="106.521" x2="180.305" y2="101.906">
			<stop offset="0" stop-color="#b1e8df"  />
			<stop offset="0.076" stop-color="#c6e5b2"  />
			<stop offset="0.247" stop-color="#fbdd41"  />
			<stop offset="0.261" stop-color="#ffdc38"  />
			<stop offset="0.357" stop-color="#fda745"  />
			<stop offset="0.456" stop-color="#fb7751"  />
			<stop offset="0.505" stop-color="#fa6456"  />
			<stop offset="0.563" stop-color="#fb7851"  />
			<stop offset="0.681" stop-color="#fdab44"  />
			<stop offset="0.783" stop-color="#ffdc38"  />
			<stop offset="1" stop-color="#adf0e7"  />
		</linearGradient>
		<linearGradient id="grd2" gradientUnits="userSpaceOnUse"  x1="100.402" y1="137.894" x2="156.485" y2="69.367">
			<stop offset="0" stop-color="#b1e8df"  />
			<stop offset="0.263" stop-color="#b1e9e0"  />
			<stop offset="0.268" stop-color="#c1e6bd"  />
			<stop offset="0.281" stop-color="#e9e066"  />
			<stop offset="0.288" stop-color="#ffdc38"  />
			<stop offset="0.289" stop-color="#ffd939"  />
			<stop offset="0.303" stop-color="#feba41"  />
			<stop offset="0.319" stop-color="#fc9f47"  />
			<stop offset="0.337" stop-color="#fc894d"  />
			<stop offset="0.359" stop-color="#fb7851"  />
			<stop offset="0.385" stop-color="#fa6d54"  />
			<stop offset="0.422" stop-color="#fa6656"  />
			<stop offset="0.525" stop-color="#fa6456"  />
			<stop offset="0.783" stop-color="#ffdc38"  />
			<stop offset="1" stop-color="#adf0e7"  />
		</linearGradient>
		<linearGradient id="grd3" gradientUnits="userSpaceOnUse"  x1="209.774" y1="126.249" x2="299.042" y2="123.239">
			<stop offset="0" stop-color="#b1e8df"  />
			<stop offset="0.076" stop-color="#c6e5b2"  />
			<stop offset="0.247" stop-color="#fbdd41"  />
			<stop offset="0.261" stop-color="#ffdc38"  />
			<stop offset="0.357" stop-color="#fda745"  />
			<stop offset="0.456" stop-color="#fb7751"  />
			<stop offset="0.505" stop-color="#fa6456"  />
			<stop offset="0.563" stop-color="#fb7851"  />
			<stop offset="0.681" stop-color="#fdab44"  />
			<stop offset="0.783" stop-color="#ffdc38"  />
			<stop offset="1" stop-color="#adf0e7"  />
		</linearGradient>
		<linearGradient id="grd4" gradientUnits="userSpaceOnUse"  x1="225.119" y1="156.358" x2="278.603" y2="92.773">
			<stop offset="0" stop-color="#b1e8df"  />
			<stop offset="0.263" stop-color="#b1e9e0"  />
			<stop offset="0.268" stop-color="#c1e6bd"  />
			<stop offset="0.281" stop-color="#e9e066"  />
			<stop offset="0.288" stop-color="#ffdc38"  />
			<stop offset="0.289" stop-color="#ffd939"  />
			<stop offset="0.303" stop-color="#feba41"  />
			<stop offset="0.319" stop-color="#fc9f47"  />
			<stop offset="0.337" stop-color="#fc894d"  />
			<stop offset="0.359" stop-color="#fb7851"  />
			<stop offset="0.385" stop-color="#fa6d54"  />
			<stop offset="0.422" stop-color="#fa6656"  />
			<stop offset="0.525" stop-color="#fa6456"  />
			<stop offset="0.783" stop-color="#ffdc38"  />
			<stop offset="1" stop-color="#adf0e7"  />
		</linearGradient>
		<linearGradient id="grd5" gradientUnits="userSpaceOnUse"  x1="327.731" y1="112.092" x2="425.137" y2="108.807">
			<stop offset="0" stop-color="#b1e8df"  />
			<stop offset="0.076" stop-color="#c6e5b2"  />
			<stop offset="0.247" stop-color="#fbdd41"  />
			<stop offset="0.261" stop-color="#ffdc38"  />
			<stop offset="0.357" stop-color="#fda745"  />
			<stop offset="0.456" stop-color="#fb7751"  />
			<stop offset="0.505" stop-color="#fa6456"  />
			<stop offset="0.563" stop-color="#fb7851"  />
			<stop offset="0.681" stop-color="#fdab44"  />
			<stop offset="0.783" stop-color="#ffdc38"  />
			<stop offset="1" stop-color="#adf0e7"  />
		</linearGradient>
		<linearGradient id="grd6" gradientUnits="userSpaceOnUse"  x1="447.128" y1="126.869" x2="543.343" y2="124.639">
			<stop offset="0" stop-color="#b1e8df"  />
			<stop offset="0.076" stop-color="#c6e5b2"  />
			<stop offset="0.247" stop-color="#fbdd41"  />
			<stop offset="0.261" stop-color="#ffdc38"  />
			<stop offset="0.357" stop-color="#fda745"  />
			<stop offset="0.456" stop-color="#fb7751"  />
			<stop offset="0.505" stop-color="#fa6456"  />
			<stop offset="0.563" stop-color="#fb7851"  />
			<stop offset="0.681" stop-color="#fdab44"  />
			<stop offset="0.783" stop-color="#ffdc38"  />
			<stop offset="1" stop-color="#adf0e7"  />
		</linearGradient>
		<linearGradient id="grd7" gradientUnits="userSpaceOnUse"  x1="464.386" y1="159.562" x2="521.636" y2="92.938">
			<stop offset="0" stop-color="#b1e8df"  />
			<stop offset="0.263" stop-color="#b1e9e0"  />
			<stop offset="0.268" stop-color="#c1e6bd"  />
			<stop offset="0.281" stop-color="#e9e066"  />
			<stop offset="0.288" stop-color="#ffdc38"  />
			<stop offset="0.289" stop-color="#ffd939"  />
			<stop offset="0.303" stop-color="#feba41"  />
			<stop offset="0.319" stop-color="#fc9f47"  />
			<stop offset="0.337" stop-color="#fc894d"  />
			<stop offset="0.359" stop-color="#fb7851"  />
			<stop offset="0.385" stop-color="#fa6d54"  />
			<stop offset="0.422" stop-color="#fa6656"  />
			<stop offset="0.525" stop-color="#fa6456"  />
			<stop offset="0.783" stop-color="#ffdc38"  />
			<stop offset="1" stop-color="#adf0e7"  />
		</linearGradient>
		<linearGradient id="grd8" gradientUnits="userSpaceOnUse"  x1="563.414" y1="116.339" x2="660.819" y2="113.054">
			<stop offset="0" stop-color="#b1e8df"  />
			<stop offset="0.076" stop-color="#c6e5b2"  />
			<stop offset="0.247" stop-color="#fbdd41"  />
			<stop offset="0.261" stop-color="#ffdc38"  />
			<stop offset="0.357" stop-color="#fda745"  />
			<stop offset="0.456" stop-color="#fb7751"  />
			<stop offset="0.505" stop-color="#fa6456"  />
			<stop offset="0.563" stop-color="#fb7851"  />
			<stop offset="0.681" stop-color="#fdab44"  />
			<stop offset="0.783" stop-color="#ffdc38"  />
			<stop offset="1" stop-color="#adf0e7"  />
		</linearGradient>
	</defs>
	<style>
		tspan { white-space:pre }
		.shp0 { fill: #ffdc38 } 
		.shp1 { fill: none;stroke: #2e1e00;stroke-linecap:round;stroke-linejoin:round;stroke-width: 2 } 
		.shp2 { fill: #fa6456 } 
		.shp3 { fill: #73b7ea } 
		.shp4 { fill: #adf0e7 } 
		.shp5 { fill: none;stroke: #fefffa;stroke-linecap:round;stroke-linejoin:round;stroke-width: 2 } 
		.shp6 { fill: #fefffa } 
		.shp7 { fill: #2e1e00 } 
		.shp8 { fill: url(#grd1) } 
		.shp9 { fill: url(#grd2) } 
		.shp10 { fill: url(#grd3) } 
		.shp11 { fill: url(#grd4) } 
		.shp12 { fill: url(#grd5) } 
		.shp13 { fill: url(#grd6) } 
		.shp14 { fill: url(#grd7) } 
		.shp15 { fill: url(#grd8) } 
	</style>
	<path id="Layer" class="shp0" d="M212.09 243.77L157.47 222.76L154.99 206.26L222.44 210.11L212.09 243.77Z" />
	<path id="Layer" class="shp1" d="M212.09 243.77L157.47 222.76L154.99 206.26L222.44 210.11L212.09 243.77Z" />
	<path id="Layer" class="shp2" d="M220.01 186.95L220.01 217.28L169.53 219.57L169.21 186.95L220.01 186.95Z" />
	<path id="Layer" class="shp1" d="M220.01 186.95L220.01 217.28L169.53 219.57L169.21 186.95L220.01 186.95Z" />
	<path id="Layer" class="shp3" d="M326.08 243.77L271.46 222.76L268.98 206.26L336.43 210.11L326.08 243.77Z" />
	<path id="Layer" class="shp1" d="M326.08 243.77L271.46 222.76L268.98 206.26L336.43 210.11L326.08 243.77Z" />
	<path id="Layer" class="shp0" d="M280 186.95L334 186.95L334 217.28L275.09 219.95L280 186.95Z" />
	<path id="Layer" class="shp1" d="M280 186.95L334 186.95L334 217.28L275.09 219.95L280 186.95Z" />
	<path id="Layer" class="shp4" d="M453.36 243.48L398.74 222.47L396.25 205.97L463.7 209.82L453.36 243.48Z" />
	<path id="Layer" class="shp1" d="M453.36 243.48L398.74 222.47L396.25 205.97L463.7 209.82L453.36 243.48Z" />
	<path id="Layer" class="shp3" d="M407.28 186.66L461.28 186.66L461.28 216.99L402.37 219.66L407.28 186.66Z" />
	<path id="Layer" class="shp1" d="M407.28 186.66L461.28 186.66L461.28 216.99L402.37 219.66L407.28 186.66Z" />
	<path id="Layer" class="shp0" d="M569.61 242.78L514.99 221.77L512.51 205.27L579.96 209.12L569.61 242.78Z" />
	<path id="Layer" class="shp1" d="M569.61 242.78L514.99 221.77L512.51 205.27L579.96 209.12L569.61 242.78Z" />
	<path id="Layer" class="shp4" d="M523.53 185.96L577.53 185.96L577.53 216.29L518.62 218.96L523.53 185.96Z" />
	<path id="Layer" class="shp1" d="M523.53 185.96L577.53 185.96L577.53 216.29L518.62 218.96L523.53 185.96Z" />
	<path id="Layer" class="shp2" d="M169.53 219.57L169.64 230.46L165.78 411.08C165.78 420.79 157.9 428.66 148.19 428.66L147.15 428.66C137.44 428.66 129.58 420.79 129.58 411.08L125.01 290.3C124.99 289.75 124.17 289.76 124.15 290.31L121.08 411.08C121.08 420.79 113.21 428.66 103.5 428.66C93.8 428.66 85.92 420.79 85.92 411.08C85.72 405.06 85.53 399.03 85.33 393C84.86 378.69 84.39 364.39 83.92 350.08C83.36 333.11 82.81 316.14 82.25 299.17C81.79 285.16 80.78 271.16 80.87 257.15C80.93 248.11 80.89 239.32 80.87 230.64C80.84 213.91 80.87 197.62 81.77 180.88C81.77 180.48 81.77 180.08 81.77 179.68C81.83 171.3 82.57 162.83 82.88 154.45C83.36 141.33 83.83 128.21 84.31 115.1C84.77 102.2 85.24 89.3 85.7 76.4C85.96 69.39 86.21 62.38 86.47 55.38C86.47 55.17 86.48 54.98 86.48 54.78C86.5 54.4 86.95 54.23 87.22 54.49L105.02 72.29C105.15 72.43 105.37 72.45 105.54 72.35C130.57 57.51 149.96 72.69 152.78 74.31C152.95 74.4 153.16 74.37 153.29 74.25L171.04 57.42C171.32 57.16 171.77 57.36 171.76 57.74L169.14 179.69L169.21 186.95L169.53 219.57Z" />
	<path id="Layer" class="shp1" d="M169.53 219.57L169.64 230.46L165.78 411.08C165.78 420.79 157.9 428.66 148.19 428.66L147.15 428.66C137.44 428.66 129.58 420.79 129.58 411.08L125.01 290.3C124.99 289.75 124.17 289.76 124.15 290.31L121.08 411.08C121.08 420.79 113.21 428.66 103.5 428.66C93.8 428.66 85.92 420.79 85.92 411.08C85.72 405.06 85.53 399.03 85.33 393C84.86 378.69 84.39 364.39 83.92 350.08C83.36 333.11 82.81 316.14 82.25 299.17C81.79 285.16 80.78 271.16 80.87 257.15C80.93 248.11 80.89 239.32 80.87 230.64C80.84 213.91 80.87 197.62 81.77 180.88C81.77 180.48 81.77 180.08 81.77 179.68C81.83 171.3 82.57 162.83 82.88 154.45C83.36 141.33 83.83 128.21 84.31 115.1C84.77 102.2 85.24 89.3 85.7 76.4C85.96 69.39 86.21 62.38 86.47 55.38C86.47 55.17 86.48 54.98 86.48 54.78C86.5 54.4 86.95 54.23 87.22 54.49L105.02 72.29C105.15 72.43 105.37 72.45 105.54 72.35C130.57 57.51 149.96 72.69 152.78 74.31C152.95 74.4 153.16 74.37 153.29 74.25L171.04 57.42C171.32 57.16 171.77 57.36 171.76 57.74L169.14 179.69L169.21 186.95L169.53 219.57Z" />
	<path id="Layer" class="shp5" d="M82.82 156.17C82.82 156.17 130.4 179 168.64 156.17" />
	<path id="Layer" class="shp5" d="M126.07 176.31L126.07 166.32" />
	<path id="Layer" class="shp6" d="M133.29 187.91C134.35 189.78 133.7 192.15 131.83 193.21C130.16 194.16 128.08 193.74 126.9 192.29C126.6 192.67 126.23 192.99 125.79 193.24C123.92 194.3 121.54 193.65 120.48 191.78C119.86 190.68 119.83 189.4 120.29 188.31C120.01 188.31 119.73 188.26 119.44 188.18C117.37 187.61 116.15 185.47 116.72 183.39C117.3 181.32 119.44 180.11 121.51 180.68C121.88 180.78 122.22 180.93 122.53 181.12C121.6 179.28 122.28 177.02 124.09 176C125.95 174.93 128.33 175.59 129.39 177.46C129.85 178.26 129.99 179.17 129.85 180.03C131.69 179.05 134 179.71 135.04 181.55C136.11 183.42 135.45 185.79 133.58 186.86C133.32 187 133.05 187.12 132.77 187.2C132.97 187.41 133.15 187.65 133.29 187.91Z" />
	<path id="Layer" class="shp1" d="M133.29 187.91C134.35 189.78 133.7 192.15 131.83 193.21C130.16 194.16 128.08 193.74 126.9 192.29C126.6 192.67 126.23 192.99 125.79 193.24C123.92 194.3 121.54 193.65 120.48 191.78C119.86 190.68 119.83 189.4 120.29 188.31C120.01 188.31 119.73 188.26 119.44 188.18C117.37 187.61 116.15 185.47 116.72 183.39C117.3 181.32 119.44 180.11 121.51 180.68C121.88 180.78 122.22 180.93 122.53 181.12C121.6 179.28 122.28 177.02 124.09 176C125.95 174.93 128.33 175.59 129.39 177.46C129.85 178.26 129.99 179.17 129.85 180.03C131.69 179.05 134 179.71 135.04 181.55C136.11 183.42 135.45 185.79 133.58 186.86C133.32 187 133.05 187.12 132.77 187.2C132.97 187.41 133.15 187.65 133.29 187.91Z" />
	<path id="Layer" class="shp1" d="M120.43 289.19C120.43 289.19 124.86 290.91 128.67 289.19" />
	<path id="Layer" class="shp2" d="M81.77 180.88C80.87 197.62 80.84 213.91 80.87 230.64C78.45 227.44 76.02 224.26 73.6 221.06C64.03 208.47 54.47 195.88 44.9 183.29C35.08 170.35 25.55 157.09 15.34 144.5C12.7 141.23 10.06 137.83 7.75 134.24C3.88 128.24 0.2 120.68 1.15 113.33C2.89 100.02 18.18 98.97 26.68 106.61C31.88 111.29 35.64 117.69 39.8 123.28C53.8 142.09 67.78 160.88 81.77 179.68C81.77 180.08 81.77 180.48 81.77 180.88Z" />
	<path id="Layer" class="shp1" d="M81.77 180.88C80.87 197.62 80.84 213.91 80.87 230.64C78.45 227.44 76.02 224.26 73.6 221.06C64.03 208.47 54.47 195.88 44.9 183.29C35.08 170.35 25.55 157.09 15.34 144.5C12.7 141.23 10.06 137.83 7.75 134.24C3.88 128.24 0.2 120.68 1.15 113.33C2.89 100.02 18.18 98.97 26.68 106.61C31.88 111.29 35.64 117.69 39.8 123.28C53.8 142.09 67.78 160.88 81.77 179.68C81.77 180.08 81.77 180.48 81.77 180.88Z" />
	<path id="Layer" class="shp0" d="M294.36 241.03L290.5 412.02C290.5 421.21 282.63 428.66 272.92 428.66L271.88 428.66C262.17 428.66 254.3 421.21 254.3 412.02L249.73 297.68C249.71 297.15 248.89 297.15 248.88 297.68L245.81 412.02C245.81 421.21 237.93 428.66 228.22 428.66C218.52 428.66 210.65 421.21 210.65 412.02C210.45 406.31 210.25 400.61 210.05 394.9C209.58 381.36 209.11 367.81 208.64 354.26C208.09 338.2 207.53 322.13 206.97 306.07C206.51 292.81 205.51 279.55 205.59 266.29C205.76 241.27 205.14 218.15 206.49 194.08C206.49 185.78 207.28 177.37 207.6 169.06L209.03 131.81C209.49 119.59 209.96 107.38 210.43 95.17C210.68 88.53 210.93 81.9 211.19 75.26C211.19 75.08 211.2 74.89 211.21 74.7C211.22 74.35 211.68 74.18 211.94 74.43L229.74 91.28C229.88 91.41 230.09 91.43 230.27 91.33C255.29 77.28 274.69 91.66 277.51 93.19C277.67 93.28 277.88 93.25 278.02 93.13L295.76 77.2C296.04 76.95 296.5 77.15 296.49 77.51L293.86 192.95L294.36 241.03Z" />
	<path id="Layer" class="shp1" d="M294.36 241.03L290.5 412.02C290.5 421.21 282.63 428.66 272.92 428.66L271.88 428.66C262.17 428.66 254.3 421.21 254.3 412.02L249.73 297.68C249.71 297.15 248.89 297.15 248.88 297.68L245.81 412.02C245.81 421.21 237.93 428.66 228.22 428.66C218.52 428.66 210.65 421.21 210.65 412.02C210.45 406.31 210.25 400.61 210.05 394.9C209.58 381.36 209.11 367.81 208.64 354.26C208.09 338.2 207.53 322.13 206.97 306.07C206.51 292.81 205.51 279.55 205.59 266.29C205.76 241.27 205.14 218.15 206.49 194.08C206.49 185.78 207.28 177.37 207.6 169.06L209.03 131.81C209.49 119.59 209.96 107.38 210.43 95.17C210.68 88.53 210.93 81.9 211.19 75.26C211.19 75.08 211.2 74.89 211.21 74.7C211.22 74.35 211.68 74.18 211.94 74.43L229.74 91.28C229.88 91.41 230.09 91.43 230.27 91.33C255.29 77.28 274.69 91.66 277.51 93.19C277.67 93.28 277.88 93.25 278.02 93.13L295.76 77.2C296.04 76.95 296.5 77.15 296.49 77.51L293.86 192.95L294.36 241.03Z" />
	<path id="Layer" class="shp7" d="M258.01 139.24C258.01 142.17 255.5 144.54 252.41 144.54C249.33 144.54 246.82 142.17 246.82 139.24C246.82 136.32 249.33 133.95 252.41 133.95C255.5 133.95 258.01 136.32 258.01 139.24Z" />
	<path id="Layer" class="shp7" d="M208.69 140.47L225.5 148.89C226.15 149.22 226.08 150.13 225.39 150.36L207.8 156.27L208.69 140.47Z" />
	<path id="Layer" class="shp7" d="M294.13 155.97L278.37 150.67C277.32 150.32 277.21 148.95 278.2 148.45L294.13 140.47L294.13 155.97Z" />
	<path id="Layer" class="shp5" d="M207.54 170.69C207.54 170.69 255.12 192.3 293.36 170.69" />
	<path id="Layer" class="shp5" d="M250.79 189.76L250.79 180.29" />
	<path id="Layer" class="shp6" d="M258.02 200.73C259.08 202.5 258.42 204.75 256.56 205.76C254.88 206.66 252.8 206.25 251.62 204.89C251.32 205.24 250.95 205.55 250.51 205.78C248.64 206.79 246.27 206.17 245.2 204.4C244.58 203.35 244.55 202.15 245.02 201.12C244.74 201.11 244.45 201.07 244.17 201C242.09 200.45 240.88 198.42 241.45 196.46C242.02 194.5 244.16 193.35 246.23 193.89C246.6 193.99 246.94 194.13 247.25 194.31C246.33 192.57 247 190.43 248.81 189.46C250.68 188.45 253.05 189.07 254.11 190.84C254.58 191.61 254.71 192.46 254.57 193.27C256.42 192.35 258.73 192.98 259.77 194.71C260.83 196.49 260.17 198.73 258.31 199.74C258.05 199.88 257.77 199.99 257.5 200.06C257.69 200.26 257.87 200.49 258.02 200.73Z" />
	<path id="Layer" class="shp1" d="M258.02 200.73C259.08 202.5 258.42 204.75 256.56 205.76C254.88 206.66 252.8 206.25 251.62 204.89C251.32 205.24 250.95 205.55 250.51 205.78C248.64 206.79 246.27 206.17 245.2 204.4C244.58 203.35 244.55 202.15 245.02 201.12C244.74 201.11 244.45 201.07 244.17 201C242.09 200.45 240.88 198.42 241.45 196.46C242.02 194.5 244.16 193.35 246.23 193.89C246.6 193.99 246.94 194.13 247.25 194.31C246.33 192.57 247 190.43 248.81 189.46C250.68 188.45 253.05 189.07 254.11 190.84C254.58 191.61 254.71 192.46 254.57 193.27C256.42 192.35 258.73 192.98 259.77 194.71C260.83 196.49 260.17 198.73 258.31 199.74C258.05 199.88 257.77 199.99 257.5 200.06C257.69 200.26 257.87 200.49 258.02 200.73Z" />
	<path id="Layer" class="shp1" d="M245.15 296.62C245.15 296.62 249.58 298.25 253.4 296.62" />
	<path id="Layer" class="shp3" d="M413.7 229.98L409.84 410.59C409.84 420.3 401.97 428.17 392.26 428.17L391.22 428.17C381.51 428.17 373.64 420.3 373.64 410.59L369.07 289.82C369.05 289.26 368.23 289.27 368.22 289.82L365.14 410.59C365.14 420.3 357.27 428.17 347.56 428.17C337.86 428.17 329.99 420.3 329.99 410.59C329.79 404.57 329.59 398.54 329.39 392.51C328.92 378.2 328.45 363.9 327.98 349.59C327.43 332.62 326.87 315.65 326.31 298.68C325.85 284.68 324.85 270.68 324.93 256.66C325.1 230.23 324.48 205.82 325.83 180.39C325.83 171.62 326.63 162.74 326.94 153.96C327.42 140.84 327.89 127.73 328.37 114.61C328.83 101.71 329.3 88.81 329.77 75.91C330.02 68.9 330.27 61.89 330.53 54.89C330.53 54.69 330.54 54.49 330.55 54.29C330.56 53.92 331.01 53.74 331.28 54L349.08 71.8C349.22 71.94 349.44 71.96 349.61 71.86C374.63 57.02 394.03 72.2 396.85 73.82C397.01 73.91 397.22 73.89 397.36 73.76L415.1 56.93C415.38 56.67 415.84 56.87 415.82 57.26L413.2 179.2L413.7 229.98Z" />
	<path id="Layer" class="shp1" d="M413.7 229.98L409.84 410.59C409.84 420.3 401.97 428.17 392.26 428.17L391.22 428.17C381.51 428.17 373.64 420.3 373.64 410.59L369.07 289.82C369.05 289.26 368.23 289.27 368.22 289.82L365.14 410.59C365.14 420.3 357.27 428.17 347.56 428.17C337.86 428.17 329.99 420.3 329.99 410.59C329.79 404.57 329.59 398.54 329.39 392.51C328.92 378.2 328.45 363.9 327.98 349.59C327.43 332.62 326.87 315.65 326.31 298.68C325.85 284.68 324.85 270.68 324.93 256.66C325.1 230.23 324.48 205.82 325.83 180.39C325.83 171.62 326.63 162.74 326.94 153.96C327.42 140.84 327.89 127.73 328.37 114.61C328.83 101.71 329.3 88.81 329.77 75.91C330.02 68.9 330.27 61.89 330.53 54.89C330.53 54.69 330.54 54.49 330.55 54.29C330.56 53.92 331.01 53.74 331.28 54L349.08 71.8C349.22 71.94 349.44 71.96 349.61 71.86C374.63 57.02 394.03 72.2 396.85 73.82C397.01 73.91 397.22 73.89 397.36 73.76L415.1 56.93C415.38 56.67 415.84 56.87 415.82 57.26L413.2 179.2L413.7 229.98Z" />
	<path id="Layer" class="shp7" d="M356.48 124.85C356.48 127.94 353.97 130.44 350.88 130.44C347.8 130.44 345.29 127.94 345.29 124.85C345.29 121.76 347.8 119.26 350.88 119.26C353.97 119.26 356.48 121.76 356.48 124.85Z" />
	<path id="Layer" class="shp7" d="M328.04 131.06L344.84 138.35C345.49 138.63 345.42 139.42 344.73 139.62L327.14 144.74L328.04 131.06Z" />
	<path id="Layer" class="shp7" d="M413.47 147.43L385.43 141.84C383.55 141.46 383.36 140.01 385.12 139.49L413.47 131.06L413.47 147.43Z" />
	<path id="Layer" class="shp5" d="M326.88 155.68C326.88 155.68 374.46 178.51 412.7 155.68" />
	<path id="Layer" class="shp5" d="M370.13 175.82L370.13 165.83" />
	<path id="Layer" class="shp6" d="M377.36 187.42C378.42 189.29 377.76 191.66 375.9 192.72C374.22 193.67 372.14 193.25 370.96 191.81C370.67 192.18 370.29 192.5 369.85 192.75C367.98 193.81 365.61 193.16 364.55 191.29C363.92 190.19 363.89 188.91 364.36 187.83C364.08 187.82 363.79 187.77 363.51 187.69C361.44 187.12 360.22 184.98 360.79 182.91C361.36 180.83 363.5 179.62 365.57 180.19C365.94 180.29 366.28 180.44 366.59 180.63C365.67 178.8 366.34 176.53 368.15 175.51C370.02 174.44 372.39 175.1 373.45 176.97C373.92 177.78 374.05 178.68 373.91 179.54C375.76 178.56 378.07 179.22 379.11 181.06C380.17 182.93 379.51 185.31 377.65 186.37C377.39 186.52 377.11 186.63 376.84 186.71C377.03 186.92 377.21 187.16 377.36 187.42Z" />
	<path id="Layer" class="shp1" d="M377.36 187.42C378.42 189.29 377.76 191.66 375.9 192.72C374.22 193.67 372.14 193.25 370.96 191.81C370.67 192.18 370.29 192.5 369.85 192.75C367.98 193.81 365.61 193.16 364.55 191.29C363.92 190.19 363.89 188.91 364.36 187.83C364.08 187.82 363.79 187.77 363.51 187.69C361.44 187.12 360.22 184.98 360.79 182.91C361.36 180.83 363.5 179.62 365.57 180.19C365.94 180.29 366.28 180.44 366.59 180.63C365.67 178.8 366.34 176.53 368.15 175.51C370.02 174.44 372.39 175.1 373.45 176.97C373.92 177.78 374.05 178.68 373.91 179.54C375.76 178.56 378.07 179.22 379.11 181.06C380.17 182.93 379.51 185.31 377.65 186.37C377.39 186.52 377.11 186.63 376.84 186.71C377.03 186.92 377.21 187.16 377.36 187.42Z" />
	<path id="Layer" class="shp1" d="M364.49 288.7C364.49 288.7 368.92 290.42 372.74 288.7" />
	<path id="Layer" class="shp4" d="M536.84 243.77L532.98 409.32C532.98 418.22 525.11 425.43 515.4 425.43L514.36 425.43C504.65 425.43 496.78 418.22 496.78 409.32L492.21 298.61C492.19 298.11 491.37 298.11 491.36 298.62L488.28 409.32C488.28 418.22 480.41 425.43 470.7 425.43C461 425.43 453.13 418.22 453.13 409.32C452.93 403.79 452.73 398.27 452.53 392.75C452.06 379.63 451.59 366.52 451.12 353.4C450.57 337.85 450.01 322.3 449.45 306.74C448.99 293.9 447.99 281.07 448.07 268.23C448.24 244 447.62 221.62 448.97 198.32C448.97 190.28 449.77 182.14 450.08 174.1C450.56 162.07 451.03 150.05 451.51 138.03C451.98 126.2 452.44 114.38 452.91 102.56C453.16 96.13 453.42 89.71 453.67 83.28C453.68 83.1 453.68 82.92 453.69 82.74C453.7 82.4 454.16 82.23 454.42 82.48L472.22 98.79C472.36 98.92 472.58 98.93 472.75 98.84C497.77 85.24 517.17 99.16 519.99 100.64C520.15 100.72 520.36 100.7 520.5 100.58L538.24 85.16C538.52 84.92 538.98 85.11 538.97 85.46L536.34 197.23L536.84 243.77Z" />
	<path id="Layer" class="shp1" d="M536.84 243.77L532.98 409.32C532.98 418.22 525.11 425.43 515.4 425.43L514.36 425.43C504.65 425.43 496.78 418.22 496.78 409.32L492.21 298.61C492.19 298.11 491.37 298.11 491.36 298.62L488.28 409.32C488.28 418.22 480.41 425.43 470.7 425.43C461 425.43 453.13 418.22 453.13 409.32C452.93 403.79 452.73 398.27 452.53 392.75C452.06 379.63 451.59 366.52 451.12 353.4C450.57 337.85 450.01 322.3 449.45 306.74C448.99 293.9 447.99 281.07 448.07 268.23C448.24 244 447.62 221.62 448.97 198.32C448.97 190.28 449.77 182.14 450.08 174.1C450.56 162.07 451.03 150.05 451.51 138.03C451.98 126.2 452.44 114.38 452.91 102.56C453.16 96.13 453.42 89.71 453.67 83.28C453.68 83.1 453.68 82.92 453.69 82.74C453.7 82.4 454.16 82.23 454.42 82.48L472.22 98.79C472.36 98.92 472.58 98.93 472.75 98.84C497.77 85.24 517.17 99.16 519.99 100.64C520.15 100.72 520.36 100.7 520.5 100.58L538.24 85.16C538.52 84.92 538.98 85.11 538.97 85.46L536.34 197.23L536.84 243.77Z" />
	<path id="Layer" class="shp7" d="M451.17 146.41L467.98 154.57C468.63 154.88 468.56 155.76 467.87 155.99L450.28 161.71L451.17 146.41Z" />
	<path id="Layer" class="shp7" d="M536.61 161.42L520.85 156.29C519.8 155.95 519.69 154.62 520.68 154.14L536.61 146.41L536.61 161.42Z" />
	<path id="Layer" class="shp5" d="M450.02 175.67C450.02 175.67 497.6 196.59 535.84 175.67" />
	<path id="Layer" class="shp5" d="M493.27 194.13L493.27 184.97" />
	<path id="Layer" class="shp6" d="M500.5 204.76C501.56 206.47 500.9 208.65 499.04 209.62C497.36 210.49 495.28 210.1 494.1 208.78C493.81 209.12 493.43 209.42 492.99 209.65C491.12 210.62 488.75 210.02 487.69 208.31C487.06 207.3 487.03 206.13 487.5 205.13C487.22 205.12 486.93 205.08 486.65 205.01C484.57 204.49 483.36 202.52 483.93 200.62C484.5 198.72 486.64 197.61 488.71 198.13C489.08 198.22 489.42 198.36 489.73 198.54C488.81 196.86 489.48 194.78 491.29 193.84C493.16 192.87 495.53 193.47 496.59 195.18C497.06 195.92 497.19 196.75 497.05 197.53C498.9 196.64 501.21 197.25 502.25 198.93C503.31 200.65 502.65 202.82 500.79 203.8C500.53 203.93 500.25 204.04 499.98 204.11C500.17 204.3 500.35 204.52 500.5 204.76Z" />
	<path id="Layer" class="shp1" d="M500.5 204.76C501.56 206.47 500.9 208.65 499.04 209.62C497.36 210.49 495.28 210.1 494.1 208.78C493.81 209.12 493.43 209.42 492.99 209.65C491.12 210.62 488.75 210.02 487.69 208.31C487.06 207.3 487.03 206.13 487.5 205.13C487.22 205.12 486.93 205.08 486.65 205.01C484.57 204.49 483.36 202.52 483.93 200.62C484.5 198.72 486.64 197.61 488.71 198.13C489.08 198.22 489.42 198.36 489.73 198.54C488.81 196.86 489.48 194.78 491.29 193.84C493.16 192.87 495.53 193.47 496.59 195.18C497.06 195.92 497.19 196.75 497.05 197.53C498.9 196.64 501.21 197.25 502.25 198.93C503.31 200.65 502.65 202.82 500.79 203.8C500.53 203.93 500.25 204.04 499.98 204.11C500.17 204.3 500.35 204.52 500.5 204.76Z" />
	<path id="Layer" class="shp1" d="M487.63 297.59C487.63 297.59 492.06 299.17 495.88 297.59" />
	<path id="Layer" class="shp5" d="M565.43 155.68C565.43 155.68 613.01 178.51 651.25 155.68" />
	<path id="Layer" class="shp5" d="M608.68 175.82L608.68 165.83" />
	<path id="Layer" class="shp6" d="M615.9 187.42C616.97 189.29 616.31 191.66 614.44 192.72C612.77 193.67 610.69 193.25 609.51 191.81C609.21 192.18 608.84 192.5 608.4 192.75C606.53 193.81 604.15 193.16 603.09 191.29C602.47 190.19 602.44 188.91 602.9 187.83C602.62 187.82 602.34 187.77 602.05 187.69C599.98 187.12 598.76 184.98 599.33 182.91C599.9 180.83 602.05 179.62 604.12 180.19C604.49 180.29 604.83 180.44 605.14 180.63C604.21 178.8 604.89 176.53 606.7 175.51C608.56 174.44 610.94 175.1 612 176.97C612.46 177.78 612.6 178.68 612.46 179.54C614.3 178.56 616.61 179.22 617.65 181.06C618.72 182.93 618.06 185.31 616.19 186.37C615.93 186.52 615.66 186.63 615.38 186.71C615.58 186.92 615.76 187.16 615.9 187.42Z" />
	<path id="Layer" class="shp1" d="M615.9 187.42C616.97 189.29 616.31 191.66 614.44 192.72C612.77 193.67 610.69 193.25 609.51 191.81C609.21 192.18 608.84 192.5 608.4 192.75C606.53 193.81 604.15 193.16 603.09 191.29C602.47 190.19 602.44 188.91 602.9 187.83C602.62 187.82 602.34 187.77 602.05 187.69C599.98 187.12 598.76 184.98 599.33 182.91C599.9 180.83 602.05 179.62 604.12 180.19C604.49 180.29 604.83 180.44 605.14 180.63C604.21 178.8 604.89 176.53 606.7 175.51C608.56 174.44 610.94 175.1 612 176.97C612.46 177.78 612.6 178.68 612.46 179.54C614.3 178.56 616.61 179.22 617.65 181.06C618.72 182.93 618.06 185.31 616.19 186.37C615.93 186.52 615.66 186.63 615.38 186.71C615.58 186.92 615.76 187.16 615.9 187.42Z" />
	<path id="Layer" class="shp1" d="M603.04 288.7C603.04 288.7 607.47 290.42 611.28 288.7" />
	<path id="Layer" class="shp0" d="M681.77 259.54C666.29 252.71 658.34 239.32 652.66 229.81L648.38 410.6C648.38 420.3 640.52 428.17 630.81 428.17L629.76 428.17C620.05 428.17 612.18 420.3 612.18 410.6L607.62 289.81C607.6 289.26 606.77 289.27 606.76 289.82L603.69 410.6C603.69 420.3 595.82 428.17 586.11 428.17C576.4 428.17 568.53 420.3 568.53 410.6C568.33 404.57 568.13 398.54 567.94 392.51C567.47 378.21 567 363.9 566.53 349.59C565.97 332.62 565.41 315.66 564.86 298.69C564.4 284.68 563.39 270.68 563.48 256.66C563.64 230.23 563.02 205.82 564.37 180.39C564.37 171.62 565.17 162.74 565.49 153.96C565.96 140.84 566.44 127.73 566.91 114.61C567.38 101.71 567.85 88.81 568.31 75.91C568.57 68.91 568.82 61.9 569.07 54.89C569.08 54.69 569.09 54.49 569.1 54.29C569.11 53.92 569.56 53.74 569.83 54.01L587.62 71.8C587.76 71.95 587.98 71.96 588.15 71.86C613.18 57.02 632.57 72.2 635.4 73.82C635.56 73.92 635.77 73.89 635.9 73.76L653.65 56.93C653.92 56.67 654.38 56.87 654.37 57.26L651.75 179.2L687.98 231.51C687.98 231.51 723.98 234.72 729.36 250.03C734.74 265.33 712.54 273.12 681.77 259.54Z" />
	<path id="Layer" class="shp1" d="M681.77 259.54C666.29 252.71 658.34 239.32 652.66 229.81L648.38 410.6C648.38 420.3 640.52 428.17 630.81 428.17L629.76 428.17C620.05 428.17 612.18 420.3 612.18 410.6L607.62 289.81C607.6 289.26 606.77 289.27 606.76 289.82L603.69 410.6C603.69 420.3 595.82 428.17 586.11 428.17C576.4 428.17 568.53 420.3 568.53 410.6C568.33 404.57 568.13 398.54 567.94 392.51C567.47 378.21 567 363.9 566.53 349.59C565.97 332.62 565.41 315.66 564.86 298.69C564.4 284.68 563.39 270.68 563.48 256.66C563.64 230.23 563.02 205.82 564.37 180.39C564.37 171.62 565.17 162.74 565.49 153.96C565.96 140.84 566.44 127.73 566.91 114.61C567.38 101.71 567.85 88.81 568.31 75.91C568.57 68.91 568.82 61.9 569.07 54.89C569.08 54.69 569.09 54.49 569.1 54.29C569.11 53.92 569.56 53.74 569.83 54.01L587.62 71.8C587.76 71.95 587.98 71.96 588.15 71.86C613.18 57.02 632.57 72.2 635.4 73.82C635.56 73.92 635.77 73.89 635.9 73.76L653.65 56.93C653.92 56.67 654.38 56.87 654.37 57.26L651.75 179.2L687.98 231.51C687.98 231.51 723.98 234.72 729.36 250.03C734.74 265.33 712.54 273.12 681.77 259.54Z" />
	<path id="Layer" class="shp7" d="M129.26 114.53C131.64 116.46 131.99 119.93 130.04 122.29C128.09 124.64 124.58 124.99 122.19 123.06C119.81 121.13 119.46 117.66 121.41 115.31C123.36 112.95 126.87 112.61 129.26 114.53Z" />
	<path id="Layer" class="shp8" d="M78.28 86.94L177.13 82.27L178.98 121.48L80.13 126.15L78.28 86.94Z" />
	<path id="Layer" class="shp9" d="M177.35 118.77L171.17 118.95L160.16 119.27L142.8 119.77L140.37 119.84L140.25 119.85C140.17 119.85 140.09 119.85 140.01 119.85C139.86 119.85 139.72 119.85 139.57 119.84C136.34 119.68 133.38 117.79 132.16 114.82C131.6 113.45 130.6 112.23 129.21 111.37C128.03 110.65 126.68 110.29 125.34 110.29C123.57 110.29 121.8 110.91 120.44 112.13C120.43 112.14 120.42 112.14 120.42 112.15C120.08 112.45 119.79 112.77 119.53 113.11C118.98 113.8 118.59 114.55 118.34 115.33C117.31 118.51 114.22 120.6 110.85 120.69L100.18 121.01L85.1 121.44L81.07 121.56L80.9 116.65L79.91 88.08L86.58 88L99.08 87.84L118.69 87.6L119.39 87.59L138.49 87.35L139.02 87.34L158.83 87.09L169.75 86.96L177.21 86.86L177.35 118.77L177.21 86.86L169.75 86.96L158.83 87.09L139.02 87.34L138.49 87.35L119.39 87.59L118.69 87.6L99.08 87.84L86.58 88L79.91 88.08L80.9 116.65L81.07 121.56L85.1 121.44L100.18 121.01L110.85 120.69C114.22 120.6 117.31 118.51 118.34 115.33C118.59 114.55 118.98 113.8 119.53 113.11C119.79 112.77 120.08 112.45 120.42 112.15C120.42 112.14 120.43 112.14 120.44 112.13C121.8 110.91 123.57 110.29 125.34 110.29C126.68 110.29 128.03 110.65 129.21 111.37C130.6 112.23 131.6 113.45 132.16 114.82C133.38 117.79 136.34 119.68 139.57 119.84C139.72 119.85 139.86 119.85 140.01 119.85C140.09 119.85 140.17 119.85 140.25 119.85L140.37 119.84L142.8 119.77L160.16 119.27L171.17 118.95L177.35 118.77Z" />
	<path id="Layer" class="shp5" d="M87.47 96.73L101.7 96.69" />
	<path id="Layer" class="shp1" d="M177.35 118.77L171.17 118.95L160.16 119.27L142.8 119.77L140.37 119.84L140.25 119.85C140.02 119.86 139.8 119.85 139.57 119.84C136.34 119.68 133.38 117.79 132.16 114.82C131.6 113.45 130.6 112.23 129.21 111.37C126.47 109.69 122.83 109.99 120.44 112.13C120.43 112.14 120.42 112.14 120.42 112.15C120.08 112.45 119.79 112.77 119.53 113.11C118.98 113.8 118.59 114.55 118.34 115.33C117.31 118.51 114.22 120.6 110.85 120.69L100.18 121.01L85.1 121.44L81.07 121.56L80.9 116.65L79.91 88.08L86.58 88L99.08 87.84L118.69 87.6L119.39 87.59L138.49 87.35L139.02 87.34L158.83 87.09L169.75 86.96L177.21 86.86L177.35 118.77Z" />
	<path id="Layer" class="shp7" d="M83.97 124.31L102.76 133.83L82.82 139.48L83.97 124.31Z" />
	<path id="Layer" class="shp1" d="M83.97 124.31L102.76 133.83L82.82 139.48L83.97 124.31Z" />
	<path id="Layer" class="shp7" d="M169.75 140.44L150.46 132.82L170.11 125.22L169.75 140.44Z" />
	<path id="Layer" class="shp1" d="M169.75 140.44L150.46 132.82L170.11 125.22L169.75 140.44Z" />
	<path id="Layer" class="shp1" d="M131.3 126.33C131.3 126.33 137.04 125.19 136.37 119.07" />
	<path id="Layer" class="shp10" d="M206.41 108.14L297.19 105.07L298.42 141.57L207.64 144.63L206.41 108.14Z" />
	<path id="Layer" class="shp11" d="M297.29 140.2L286.4 140.36L269.25 140.64L266.85 140.68L266.73 140.68C266.68 140.68 266.63 140.68 266.58 140.68C266.4 140.68 266.23 140.68 266.05 140.66C262.87 140.46 259.96 138.53 258.8 135.54C258.26 134.17 257.3 132.94 255.93 132.06C254.75 131.29 253.38 130.92 252.02 130.92C250.31 130.92 248.59 131.52 247.26 132.69C247.25 132.7 247.24 132.71 247.23 132.72C246.9 133.01 246.6 133.33 246.34 133.66C245.79 134.34 245.4 135.09 245.13 135.88C244.08 139.03 241 141.08 237.66 141.14L227.12 141.31L212.22 141.54L208.24 141.6L208.13 136.69L207.54 108.1L214.13 108.1L226.48 108.11L245.85 108.13L246.55 108.13L265.42 108.14L265.95 108.14L285.52 108.16L296.31 108.17L297.29 140.2L296.31 108.17L285.52 108.16L265.95 108.14L265.43 108.14L246.55 108.13L245.85 108.13L226.48 108.11L214.13 108.1L207.54 108.1L208.13 136.69L208.24 141.6L212.22 141.54L227.12 141.31L237.66 141.14C241 141.08 244.08 139.03 245.13 135.88C245.4 135.09 245.79 134.34 246.34 133.66C246.6 133.33 246.9 133.01 247.23 132.72C247.24 132.71 247.25 132.7 247.26 132.69C248.59 131.52 250.31 130.92 252.02 130.92C253.38 130.92 254.75 131.29 255.93 132.06C257.3 132.94 258.26 134.17 258.8 135.54C259.97 138.53 262.87 140.46 266.05 140.66C266.23 140.68 266.41 140.68 266.58 140.68C266.63 140.68 266.68 140.68 266.73 140.68L266.85 140.68L269.25 140.64L286.4 140.36L297.29 140.2Z" />
	<path id="Layer" class="shp5" d="M214.89 116.85L228.95 117" />
	<path id="Layer" class="shp1" d="M297.29 140.2L286.4 140.36L269.25 140.64L266.85 140.68L266.73 140.68C266.5 140.69 266.28 140.68 266.05 140.66C262.87 140.46 259.97 138.53 258.8 135.54C258.26 134.17 257.3 132.94 255.93 132.06C253.25 130.33 249.65 130.59 247.26 132.69C247.25 132.7 247.24 132.71 247.23 132.72C246.9 133.01 246.6 133.33 246.34 133.66C245.79 134.34 245.4 135.09 245.14 135.88C244.08 139.03 241 141.08 237.66 141.14L227.12 141.31L212.22 141.54L208.24 141.6L208.13 136.69L207.54 108.1L214.13 108.1L226.48 108.11L245.86 108.13L246.55 108.13L265.43 108.14L265.95 108.14L285.52 108.16L296.31 108.17L297.4 108.1L297.29 140.2Z" />
	<path id="Layer" class="shp12" d="M324.28 93.9L422.14 90.6L423.37 127.17L325.51 130.47L324.28 93.9Z" />
	<path id="Layer" class="shp5" d="M313.81 102.76L327.88 102.9" />
	<path id="Layer" class="shp1" d="M325.4 94.02L344.78 94.03L345.48 94.03L364.35 94.05L364.87 94.04L384.44 94.06L395.23 94.07L422.25 93.86L422.14 125.96L396.21 126.1L385.33 126.27L368.17 126.54L365.77 126.58L365.65 126.58C365.42 126.59 365.2 126.58 364.97 126.57C361.79 126.37 358.89 124.44 357.72 121.44C357.19 120.07 356.22 118.84 354.85 117.96C352.18 116.24 348.57 116.49 346.18 118.6C346.17 118.61 346.17 118.61 346.16 118.62C345.82 118.91 345.53 119.23 345.26 119.57C344.72 120.25 344.32 121 344.06 121.78C343 124.94 339.93 126.99 336.59 127.04L326.04 127.21L325.4 94.02Z" />
	<path id="Layer" class="shp1" d="M258.65 146.41C258.65 146.41 264.69 146.22 264.69 140.47" />
	<path id="Layer" class="shp1" d="M358.26 134.45C358.26 134.45 365.13 134.35 365.77 126.58" />
	<path id="Layer" class="shp13" d="M444.59 108.88L541.3 106.64L542.13 142.7L445.43 144.95L444.59 108.88Z" />
	<path id="Layer" class="shp14" d="M530.35 142.3L513.01 142.39L510.59 142.41L510.47 142.41C510.44 142.41 510.41 142.41 510.38 142.41C510.18 142.41 509.99 142.4 509.79 142.39C506.57 142.15 503.66 140.17 502.51 137.13C501.99 135.74 501.03 134.49 499.65 133.58C498.44 132.79 497.04 132.39 495.64 132.39C493.93 132.39 492.23 132.98 490.89 134.13C490.88 134.14 490.87 134.14 490.86 134.16C490.52 134.45 490.22 134.77 489.95 135.1C489.39 135.79 488.99 136.54 488.71 137.32C487.61 140.5 484.48 142.54 481.11 142.56L470.45 142.62L455.4 142.7L445.38 142.72L445.39 137.07L445.89 108.86L457.68 108.94L470.16 109.08L489.73 109.3L490.44 109.31L509.5 109.53L510.03 109.53L529.8 109.76L540.7 109.88L541.35 142.25L540.7 109.88L529.8 109.76L510.03 109.53L509.5 109.53L490.44 109.31L489.73 109.3L470.16 109.08L457.69 108.94L445.9 108.86L445.39 137.07L445.38 142.72L455.4 142.7L470.45 142.62L481.11 142.56C484.48 142.54 487.61 140.5 488.71 137.32C488.99 136.54 489.39 135.79 489.95 135.1C490.22 134.77 490.52 134.45 490.86 134.16C490.87 134.14 490.88 134.14 490.89 134.13C492.23 132.98 493.93 132.39 495.64 132.39C497.04 132.39 498.44 132.79 499.65 133.58C501.03 134.49 501.99 135.74 502.51 137.13C503.66 140.17 506.57 142.15 509.79 142.39C509.99 142.4 510.18 142.41 510.38 142.41C510.41 142.41 510.44 142.41 510.47 142.41L510.59 142.41L513.01 142.39L530.35 142.3L541.35 142.25L530.35 142.3Z" />
	<path id="Layer" class="shp5" d="M458.36 117.79L472.56 118.08" />
	<path id="Layer" class="shp1" d="M541.35 142.25L530.35 142.3L513.01 142.39L510.59 142.41L510.47 142.41C510.24 142.41 510.02 142.4 509.79 142.39C506.57 142.15 503.66 140.17 502.51 137.13C501.99 135.74 501.03 134.49 499.65 133.58C496.97 131.81 493.33 132.03 490.89 134.13C490.88 134.14 490.87 134.14 490.86 134.16C490.52 134.45 490.22 134.77 489.95 135.1C489.39 135.79 488.99 136.54 488.71 137.32C487.61 140.5 484.48 142.54 481.11 142.56L470.45 142.62L455.4 142.7L445.38 142.72L445.38 138L445.89 108.86L457.68 108.94L470.16 109.08L489.73 109.3L490.44 109.31L509.5 109.53L510.03 109.53L529.8 109.76L540.7 109.88L541.8 109.82L541.35 142.25Z" />
	<path id="Layer" class="shp7" d="M500.87 140.05C500.87 143.14 498.36 145.64 495.27 145.64C492.18 145.64 489.68 143.14 489.68 140.05C489.68 136.96 492.18 134.45 495.27 134.45C498.36 134.45 500.87 136.96 500.87 140.05Z" />
	<path id="Layer" class="shp1" d="M499.38 150.23C499.38 150.23 507.66 149.57 507.67 141.96" />
	<path id="Layer" class="shp1" d="M592.19 137.84C592.19 137.84 600.47 137.19 600.49 129.57" />
	<path id="Layer" class="shp15" d="M559.95 98.13L657.81 94.83L659.04 131.4L561.18 134.7L559.95 98.13Z" />
	<path id="Layer" class="shp5" d="M632.15 106.84L646.22 106.98" />
	<path id="Layer" class="shp1" d="M561.07 98.24L580.45 98.26L581.14 98.26L600.02 98.27L600.54 98.27L620.11 98.29L630.9 98.3L657.92 98.09L657.81 130.19L631.88 130.32L621 130.49L603.84 130.77L601.44 130.81L601.32 130.81C601.09 130.81 600.87 130.81 600.64 130.79C597.46 130.59 594.56 128.66 593.39 125.67C592.85 124.29 591.89 123.06 590.52 122.19C587.84 120.46 584.24 120.72 581.85 122.82C581.84 122.83 581.83 122.83 581.82 122.84C581.49 123.14 581.19 123.46 580.93 123.79C580.38 124.47 579.99 125.22 579.73 126C578.67 129.16 575.59 131.21 572.26 131.26L561.71 131.44L561.07 98.24Z" />
	<path id="Layer" class="shp7" d="M592.19 128.12C592.19 131.2 589.69 133.71 586.6 133.71C583.51 133.71 581 131.2 581 128.12C581 125.03 583.51 122.52 586.6 122.52C589.69 122.52 592.19 125.03 592.19 128.12Z" />
	<path id="Layer" class="shp7" d="M566.32 135.87L583.13 143.97C583.78 144.29 583.71 145.16 583.01 145.38L565.43 151.07L566.32 135.87Z" />
	<path id="Layer" class="shp7" d="M652.66 153.95L624.61 148.35C622.74 147.98 622.55 146.53 624.31 146.01L652.66 137.57L652.66 153.95Z" />
	<path id="Layer" class="shp0" d="M84.54 189.92C79.69 200.6 70.53 206.89 64.08 203.96C57.62 201.03 56.32 190 61.16 179.31C66.01 168.63 75.17 162.34 81.63 165.27C88.08 168.2 89.39 179.23 84.54 189.92Z" />
	<path id="Layer" class="shp1" d="M61.16 179.32C66.01 168.63 75.17 162.35 81.63 165.27C88.08 168.2 89.39 179.24 84.54 189.92C79.69 200.61 70.53 206.9 64.08 203.97C57.62 201.04 56.32 190 61.16 179.32Z" />
	<path id="Layer" class="shp3" d="M209.21 201.26C204.36 211.95 195.2 218.24 188.75 215.31C182.29 212.38 180.99 201.35 185.84 190.66C190.68 179.98 199.84 173.69 206.3 176.62C212.75 179.54 214.06 190.58 209.21 201.26Z" />
	<path id="Layer" class="shp1" d="M185.84 190.67C190.68 179.98 199.84 173.69 206.3 176.62C212.76 179.55 214.06 190.59 209.21 201.27C204.37 211.96 195.2 218.25 188.75 215.32C182.29 212.39 180.99 201.35 185.84 190.67Z" />
	<path id="Layer" class="shp4" d="M326.89 199.45C322.04 210.13 312.88 216.42 306.43 213.49C299.97 210.56 298.67 199.53 303.51 188.84C308.36 178.16 317.52 171.87 323.98 174.8C330.44 177.72 331.74 188.76 326.89 199.45Z" />
	<path id="Layer" class="shp1" d="M303.52 188.85C308.37 178.17 317.53 171.88 323.98 174.81C330.44 177.73 331.74 188.77 326.89 199.46C322.05 210.14 312.88 216.43 306.43 213.5C299.97 210.57 298.67 199.54 303.52 188.85Z" />
	<path id="Layer" class="shp0" d="M453.01 199.48C448.16 210.16 439 216.45 432.54 213.52C426.09 210.59 424.78 199.56 429.63 188.87C434.48 178.19 443.64 171.9 450.1 174.83C456.55 177.75 457.85 188.79 453.01 199.48Z" />
	<path id="Layer" class="shp1" d="M429.64 188.87C434.49 178.19 443.65 171.9 450.11 174.83C456.56 177.75 457.87 188.79 453.02 199.48C448.17 210.16 439.01 216.45 432.56 213.52C426.1 210.59 424.8 199.56 429.64 188.87Z" />
	<path id="Layer" class="shp4" d="M649.14 178.27C655.6 175.34 664.76 181.63 669.61 192.32C674.45 203 673.15 214.04 666.69 216.97C660.24 219.89 651.08 213.61 646.23 202.92C641.38 192.24 642.69 181.2 649.14 178.27Z" />
	<path id="Layer" class="shp1" d="M669.59 192.32C674.44 203.01 673.14 214.04 666.68 216.97C660.23 219.9 651.07 213.61 646.22 202.92C641.37 192.24 642.67 181.2 649.13 178.28C655.59 175.35 664.75 181.64 669.59 192.32Z" />
	<path id="Layer" class="shp6" d="M359.74 4.23C359.74 6.57 357.84 8.46 355.5 8.46C353.17 8.46 351.27 6.57 351.27 4.23C351.27 1.9 353.17 0 355.5 0C357.84 0 359.74 1.9 359.74 4.23Z" />
	<path id="Layer" class="shp5" d="M565.43 161.53C565.43 161.53 613.01 184.36 651.25 161.53" />
	<path id="Layer" class="shp5" d="M608.68 181.67L608.68 171.68" />
	<path id="Layer" class="shp6" d="M615.9 193.27C616.97 195.14 616.31 197.51 614.44 198.57C612.77 199.52 610.69 199.1 609.51 197.66C609.21 198.03 608.84 198.35 608.4 198.6C606.53 199.66 604.15 199.01 603.09 197.14C602.47 196.04 602.44 194.76 602.9 193.68C602.62 193.67 602.34 193.62 602.05 193.54C599.98 192.97 598.76 190.83 599.33 188.76C599.9 186.68 602.05 185.47 604.12 186.04C604.49 186.14 604.83 186.29 605.14 186.48C604.21 184.65 604.89 182.38 606.7 181.36C608.56 180.29 610.94 180.95 612 182.82C612.46 183.63 612.6 184.53 612.46 185.39C614.3 184.41 616.61 185.07 617.65 186.91C618.72 188.78 618.06 191.16 616.19 192.22C615.93 192.37 615.66 192.48 615.38 192.56C615.58 192.77 615.76 193.01 615.9 193.27Z" />
	<path id="Layer" class="shp1" d="M615.9 193.27C616.97 195.14 616.31 197.51 614.44 198.57C612.77 199.52 610.69 199.1 609.51 197.66C609.21 198.03 608.84 198.35 608.4 198.6C606.53 199.66 604.15 199.01 603.09 197.14C602.47 196.04 602.44 194.76 602.9 193.68C602.62 193.67 602.34 193.62 602.05 193.54C599.98 192.97 598.76 190.83 599.33 188.76C599.9 186.68 602.05 185.47 604.12 186.04C604.49 186.14 604.83 186.29 605.14 186.48C604.21 184.65 604.89 182.38 606.7 181.36C608.56 180.29 610.94 180.95 612 182.82C612.46 183.63 612.6 184.53 612.46 185.39C614.3 184.41 616.61 185.07 617.65 186.91C618.72 188.78 618.06 191.16 616.19 192.22C615.93 192.37 615.66 192.48 615.38 192.56C615.58 192.77 615.76 193.01 615.9 193.27Z" />
	<path id="Layer" class="shp1" d="M603.04 288.7C603.04 288.7 607.47 290.28 611.28 288.7" />
</svg>